<?xml version="1.0" encoding="UTF-8"?>
<svg width="216px" height="48px" viewBox="0 0 216 48" version="1.1" xmlns="http://www.w3.org/2000/svg" xmlns:xlink="http://www.w3.org/1999/xlink">
    <defs>
        <linearGradient x1="-511.7%" y1="134.2%" x2="371.3%" y2="3%" id="linearGradient-1">
            <stop stop-color="#E75019" offset="0%"></stop>
            <stop stop-color="#DA0010" offset="99.9%"></stop>
        </linearGradient>
        <linearGradient x1="-8.2%" y1="73.5%" x2="435%" y2="-57.8%" id="linearGradient-2">
            <stop stop-color="#E75019" offset="0%"></stop>
            <stop stop-color="#DA0010" offset="99.9%"></stop>
        </linearGradient>
        <linearGradient x1="-329.9%" y1="168.9%" x2="113.3%" y2="37.6%" id="linearGradient-3">
            <stop stop-color="#E75019" offset="0%"></stop>
            <stop stop-color="#DA0010" offset="99.9%"></stop>
        </linearGradient>
        <linearGradient x1="-132.1%" y1="104.7%" x2="311.2%" y2="-26.7%" id="linearGradient-4">
            <stop stop-color="#E75019" offset="0%"></stop>
            <stop stop-color="#DA0010" offset="99.9%"></stop>
        </linearGradient>
    </defs>
    <g id="Page-1" stroke="none" stroke-width="1" fill="none" fill-rule="evenodd">
        <g id="logo" transform="translate(-1.000000, 0.000000)" fill-rule="nonzero">
            <path d="M140.102,29.08 C140.102,15.126 140.369,10.816 148.63,10.816 C149.609,10.816 152.342,10.873 152.342,10.873 L152.342,0 L145.994,0 C141.778384,0.287561477 137.768684,1.93023698 134.563,4.683 L134.563,4.683 C129.675,9.163 129.596,20.27 129.596,20.27 L129.596,47.642 L140.106,47.642 L140.102,29.08 Z" id="Tracé_1" fill="url(#linearGradient-1)"></path>
            <path d="M37.327,5.008 C33.2440652,1.62427859 28.0616951,-0.14409625 22.762,0.038 C10.826,0.462 1.188,10.838 1.002,23.453 C0.802,36.776 10.97,47.641 23.537,47.641 C28.5730151,47.6317226 33.4487128,45.8695415 37.327,42.657 L37.327,47.674 L46.394,47.674 L46.394,1.213 L40.919,1.213 C38.8803791,1.27183613 37.2737864,2.96922462 37.327,5.008 L37.327,5.008 Z M23.537,38.4 C15.921,38.4 9.747,31.878 9.747,23.832 C9.747,15.786 15.921,9.264 23.537,9.264 C31.153,9.264 37.327,15.783 37.327,23.833 C37.327,31.883 31.153,38.4 23.537,38.4 L23.537,38.4 Z" id="Tracé_2" fill="url(#linearGradient-2)"></path>
            <path d="M207.526,5.008 C203.443111,1.62419604 198.260709,-0.144189829 192.961,0.038 C181.025,0.462 171.387,10.838 171.201,23.453 C171.001,36.776 181.169,47.641 193.736,47.641 C198.77203,47.6318061 203.647755,45.8696151 207.526,42.657 L207.526,47.674 L216.589,47.674 L216.589,1.213 L211.119,1.213 C209.080379,1.27183613 207.473786,2.96922462 207.527,5.008 L207.526,5.008 Z M193.736,38.4 C186.12,38.4 179.946,31.878 179.946,23.832 C179.946,15.786 186.12,9.264 193.736,9.264 C201.352,9.264 207.526,15.783 207.526,23.833 C207.526,31.883 201.353,38.4 193.736,38.4 L193.736,38.4 Z" id="Tracé_3" fill="url(#linearGradient-3)"></path>
            <path d="M111.109,33.574 L100.26,33.574 C97.2826482,36.9183676 92.9257172,38.6974114 88.4584275,38.3928768 C83.9911378,38.0883422 79.9159464,35.7344817 77.42,32.017 L77.42,32.017 L105.62,20.017 C107.558352,19.1846644 109.008251,17.5097788 109.554314,15.4721808 C110.100378,13.4345827 109.682354,11.2591051 108.42,9.569 C103.46135,2.89360877 95.3601929,-0.685725243 87.086,0.143 C74.488718,1.44769461 65.1123153,12.3777669 65.7392506,25.026905 C66.3661859,37.676043 76.7774443,47.62537 89.442,47.678 C98.8138996,47.6685766 107.302211,42.1437098 111.105,33.578 L111.109,33.574 Z M74.929,23.874 L74.929,23.874 C74.3946681,19.2481264 76.4824935,14.7099791 80.343,12.106 C87.59,7.468 94.99,8.958 99.537,13.384 L74.928,23.877 L74.929,23.874 Z" id="Tracé_4" fill="url(#linearGradient-4)"></path>
        </g>
    </g>
</svg>